<svg xmlns="http://www.w3.org/2000/svg" xmlns:svgjs="http://svgjs.com/svgjs" xmlns:xlink="http://www.w3.org/1999/xlink" width="24" height="24" version="1.1" viewBox="0 0 24 24"><title>Exported from Streamline App (https://app.streamlineicons.com)</title><g><path fill="#000" stroke="none" stroke-linecap="round" stroke-linejoin="round" stroke-width="0" d="M20.06,3.5H3.94C1.764,3.5,0,5.264,0,7.44v9.12c0,2.176,1.764,3.94,3.94,3.94c0,0,0,0,0,0h16.12 c2.176,0,3.94-1.764,3.94-3.94l0,0V7.44C24,5.264,22.236,3.5,20.06,3.5L20.06,3.5z M16.54,12l-6.77,4.36 c-0.232,0.149-0.542,0.082-0.691-0.151C9.028,16.129,9,16.035,9,15.94V7.28c0-0.276,0.225-0.5,0.501-0.499 c0.095,0,0.189,0.028,0.269,0.079l6.77,4.33c0.232,0.15,0.299,0.459,0.149,0.691c-0.038,0.06-0.089,0.11-0.149,0.149V12z" transform="matrix(1,0,0,1,0,0)"/></g></svg>