<svg xmlns="http://www.w3.org/2000/svg" xmlns:svgjs="http://svgjs.com/svgjs" xmlns:xlink="http://www.w3.org/1999/xlink" width="24" height="24" version="1.1" viewBox="0 0 24 24"><title>Exported from Streamline App (https://app.streamlineicons.com)</title><g><path fill="#000" stroke="none" stroke-linecap="round" stroke-linejoin="round" stroke-width="0" d="M18.14,7.17C18.046,7.063,17.912,7.002,17.77,7H14V5.59c0-0.28,0.06-0.6,0.51-0.6h3c0.133,0.006,0.262-0.049,0.35-0.15 C17.948,4.749,17.998,4.627,18,4.5v-4C18,0.224,17.776,0,17.5,0h-4.33C8.37,0,8,4.1,8,5.35V7H5.5C5.224,7,5,7.224,5,7.5v4 C5,11.776,5.224,12,5.5,12H8v11.5C8,23.776,8.224,24,8.5,24h5c0.276,0,0.5-0.224,0.5-0.5V12h3.35c0.258,0.001,0.474-0.194,0.5-0.45 l0.42-4C18.282,7.411,18.235,7.273,18.14,7.17z" transform="matrix(1,0,0,1,0,0)"/></g></svg>