<svg xmlns="http://www.w3.org/2000/svg" xmlns:xlink="http://www.w3.org/1999/xlink" width="370" height="220" version="1.1" viewBox="0 0 370 220"><defs><ellipse id="path-1" cx="185" cy="110" rx="185" ry="110"/><ellipse id="path-3" cx="185" cy="110" rx="185" ry="110"/></defs><g id="Page-1" fill="none" fill-rule="evenodd" stroke="none" stroke-width="1"><g id="restricted-area-illustration"><ellipse id="Oval" cx="185" cy="110" fill="#EBEEF2" rx="185" ry="110"/><g id="background-illustration"><mask id="mask-2" fill="#fff"><use xlink:href="#path-1"/></mask><g id="background-components" mask="url(#mask-2)"><g transform="translate(11.000000, 11.500000)"><g id="stars" transform="translate(0.000000, 1.500000)"><path id="Combined-Shape" fill="#CAD0D8" d="M289.999715,33 C290.581185,33 291.052632,33.5088839 291.052632,34.136528 L291.052,35.947 L292.863913,35.9473684 C293.491038,35.9473684 294,36.4183726 294,37 C294,37.5810572 293.491038,38.0526316 292.863913,38.0526316 L291.052,38.052 L291.052632,39.8640874 C291.052632,40.4911161 290.581185,41 289.999715,41 C289.418815,41 288.947368,40.4911161 288.947368,39.8640874 L288.947,38.052 L287.136087,38.0526316 C286.508962,38.0526316 286,37.5810572 286,37 C286,36.4183726 286.508962,35.9473684 287.136087,35.9473684 L288.947,35.947 L288.947368,34.136528 C288.947368,33.5088839 289.418815,33 289.999715,33 Z"/><path id="Combined-Shape-Copy" fill="#CAD0D8" d="M79.999715,15 C80.5811849,15 81.0526316,15.5088839 81.0526316,16.136528 L81.052,17.947 L82.8639126,17.9473684 C83.4910378,17.9473684 84,18.4183726 84,19 C84,19.5810572 83.4910378,20.0526316 82.8639126,20.0526316 L81.052,20.052 L81.0526316,21.8640874 C81.0526316,22.4911161 80.5811849,23 79.999715,23 C79.4188151,23 78.9473684,22.4911161 78.9473684,21.8640874 L78.947,20.052 L77.1360874,20.0526316 C76.5089622,20.0526316 76,19.5810572 76,19 C76,18.4183726 76.5089622,17.9473684 77.1360874,17.9473684 L78.947,17.947 L78.9473684,16.136528 C78.9473684,15.5088839 79.4188151,15 79.999715,15 Z"/><path id="Combined-Shape-Copy-3" fill="#CAD0D8" d="M241.999715,106 C242.581185,106 243.052632,106.508884 243.052632,107.136528 L243.052,108.947 L244.863913,108.947368 C245.491038,108.947368 246,109.418373 246,110 C246,110.581057 245.491038,111.052632 244.863913,111.052632 L243.052,111.052 L243.052632,112.864087 C243.052632,113.491116 242.581185,114 241.999715,114 C241.418815,114 240.947368,113.491116 240.947368,112.864087 L240.947,111.052 L239.136087,111.052632 C238.508962,111.052632 238,110.581057 238,110 C238,109.418373 238.508962,108.947368 239.136087,108.947368 L240.947,108.947 L240.947368,107.136528 C240.947368,106.508884 241.418815,106 241.999715,106 Z"/><path id="Combined-Shape-Copy-2" fill="#CAD0D8" d="M335.999715,97 C336.581185,97 337.052632,97.5088839 337.052632,98.136528 L337.052,99.947 L338.863913,99.9473684 C339.491038,99.9473684 340,100.418373 340,101 C340,101.581057 339.491038,102.052632 338.863913,102.052632 L337.052,102.052 L337.052632,103.864087 C337.052632,104.491116 336.581185,105 335.999715,105 C335.418815,105 334.947368,104.491116 334.947368,103.864087 L334.947,102.052 L333.136087,102.052632 C332.508962,102.052632 332,101.581057 332,101 C332,100.418373 332.508962,99.9473684 333.136087,99.9473684 L334.947,99.947 L334.947368,98.136528 C334.947368,97.5088839 335.418815,97 335.999715,97 Z"/><circle id="Oval-Copy" cx="33.5" cy="64.5" r="2.5" fill="#CAD0D8"/><circle id="Oval-Copy-2" cx="33.5" cy="64.5" r="1" fill="#EBEEF2"/><circle id="Oval-Copy" cx="158.5" cy="2.5" r="2.5" fill="#CAD0D8"/><circle id="Oval-Copy-2" cx="158.5" cy="2.5" r="1" fill="#EBEEF2"/><circle id="Oval-Copy" cx="256.5" cy="81.5" r="2.5" fill="#CAD0D8"/><circle id="Oval-Copy-2" cx="256.5" cy="81.5" r="1" fill="#EBEEF2"/><circle id="Oval-Copy" cx="309.5" cy="145.5" r="2.5" fill="#CAD0D8"/><circle id="Oval-Copy-2" cx="309.5" cy="145.5" r="1" fill="#EBEEF2"/><circle id="Oval-Copy" cx="84.5" cy="52.5" r="2.5" fill="#CAD0D8"/><circle id="Oval-Copy-2" cx="84.5" cy="52.5" r="1" fill="#EBEEF2"/><circle id="Oval-Copy" cx="18.5" cy="103.5" r="2.5" fill="#CAD0D8"/><circle id="Oval-Copy-2" cx="18.5" cy="103.5" r="1" fill="#EBEEF2"/><circle id="Oval-Copy-4" cx="54.5" cy="41.5" r="1.5" fill="#CAD0D8"/><circle id="Oval-Copy-3" cx="96.5" cy="89.5" r="1.5" fill="#CAD0D8"/><circle id="Oval" cx="57.5" cy="72.5" r="1.5" fill="#CAD0D8"/><circle id="Oval-Copy-11" cx="1.5" cy="72.5" r="1.5" fill="#CAD0D8"/><circle id="Oval-Copy-10" cx="175.5" cy="23.5" r="1.5" fill="#CAD0D8"/><circle id="Oval-Copy-5" cx="248.5" cy="6.5" r="1.5" fill="#CAD0D8"/><circle id="Oval-Copy-6" cx="241.5" cy="55.5" r="1.5" fill="#CAD0D8"/><circle id="Oval-Copy-9" cx="286.5" cy="64.5" r="1.5" fill="#CAD0D8"/><circle id="Oval-Copy-13" cx="161.5" cy="95.5" r="1.5" fill="#CAD0D8"/><circle id="Oval-Copy-14" cx="81.5" cy="136.5" r="1.5" fill="#CAD0D8"/><circle id="Oval-Copy-15" cx="29.5" cy="144.5" r="1.5" fill="#CAD0D8"/><circle id="Oval-Copy-16" cx="263.5" cy="161.5" r="1.5" fill="#CAD0D8"/><circle id="Oval-Copy-17" cx="240.5" cy="144.5" r="1.5" fill="#CAD0D8"/><circle id="Oval-Copy-12" cx="109.5" cy="19.5" r="1.5" fill="#CAD0D8"/><circle id="Oval-Copy-7" cx="320.5" cy="48.5" r="1.5" fill="#CAD0D8"/><circle id="Oval-Copy-8" cx="310.5" cy="82.5" r="1.5" fill="#CAD0D8"/></g><g id="rocket" stroke-linejoin="round" transform="translate(104.000000, 7.000000)"><line id="Line-17" x1="25" x2="25" y1=".5" y2="16.5" stroke="#CAD0D8" stroke-linecap="round" stroke-width="4"/><polygon id="Triangle" fill="#CAD0D8" stroke="#CAD0D8" stroke-width="4" points="25 16.539 33.5 28.5 16.5 28.5"/><polygon id="Triangle-Copy" fill="#CAD0D8" stroke="#CAD0D8" stroke-width="4" points="25 18.147 41 62.481 9 62.481"/><polygon id="Triangle-Copy-2" fill="#CAD0D8" stroke="#CAD0D8" stroke-width="4" points="25 57.5 50 124.5 0 124.5"/><rect id="Rectangle" width="18" height="12" x="16" y="29.5" fill="#CAD0D8" stroke="#CAD0D8" stroke-width="4"/><rect id="Rectangle-Copy-3" width="32" height="42" x="9" y="63.5" fill="#CAD0D8" stroke="#CAD0D8" stroke-width="4"/><rect id="Rectangle-Copy-4" width="50" height="86" x="0" y="125.5" fill="#CAD0D8" stroke="#CAD0D8" stroke-width="4"/></g><g id="support-tower" transform="translate(139.000000, 0.000000)"><rect id="Rectangle" width="38" height="8" x="10" y="36.5" stroke="#CAD0D8" stroke-width="3" rx="2"/><rect id="Rectangle-Copy-5" width="31" height="8" x="17" y="72.5" stroke="#CAD0D8" stroke-width="3" rx="2"/><rect id="Rectangle-Copy-6" width="27" height="8" x="21" y="108.5" stroke="#CAD0D8" stroke-width="3" rx="2"/><rect id="Rectangle-Copy-7" width="22" height="8" x="26" y="136.5" stroke="#CAD0D8" stroke-width="3" rx="2"/><rect id="Rectangle-Copy-8" width="22" height="8" x="26" y="180.5" stroke="#CAD0D8" stroke-width="3" rx="2"/><line id="Line" x1="37.5" x2="91.5" y1=".5" y2=".5" stroke="#CAD0D8" stroke-linecap="round" stroke-linejoin="round" stroke-width="3"/><line id="Line-Copy-12" x1="4" x2="13" y1="36.5" y2="36.5" stroke="#CAD0D8" stroke-linecap="round" stroke-linejoin="round" stroke-width="3"/><line id="Line-Copy-13" x1="12" x2="24" y1="108.5" y2="108.5" stroke="#CAD0D8" stroke-linecap="round" stroke-linejoin="round" stroke-width="3"/><line id="Line-Copy-15" x1="20" x2="32" y1="136.5" y2="136.5" stroke="#CAD0D8" stroke-linecap="round" stroke-linejoin="round" stroke-width="3"/><line id="Line-Copy-16" x1="20" x2="32" y1="180.5" y2="180.5" stroke="#CAD0D8" stroke-linecap="round" stroke-linejoin="round" stroke-width="3"/><line id="Line-Copy-14" x1="11" x2="20" y1="72.5" y2="72.5" stroke="#CAD0D8" stroke-linecap="round" stroke-linejoin="round" stroke-width="3"/><line id="Line-Copy" x1="47.5" x2="87.5" y1="18.5" y2="18.5" stroke="#CAD0D8" stroke-linejoin="round" stroke-width="3"/><line id="Line-Copy-2" x1="47.5" x2="87.5" y1="36.5" y2="36.5" stroke="#CAD0D8" stroke-linejoin="round" stroke-width="3"/><line id="Line-Copy-3" x1="47.5" x2="87.5" y1="54.5" y2="54.5" stroke="#CAD0D8" stroke-linejoin="round" stroke-width="3"/><line id="Line-Copy-4" x1="47.5" x2="87.5" y1="72.5" y2="72.5" stroke="#CAD0D8" stroke-linejoin="round" stroke-width="3"/><line id="Line-Copy-5" x1="47.5" x2="87.5" y1="90.5" y2="90.5" stroke="#CAD0D8" stroke-linejoin="round" stroke-width="3"/><line id="Line-Copy-6" x1="47.5" x2="87.5" y1="108.5" y2="108.5" stroke="#CAD0D8" stroke-linejoin="round" stroke-width="3"/><line id="Line-Copy-7" x1="47.5" x2="87.5" y1="126.5" y2="126.5" stroke="#CAD0D8" stroke-linejoin="round" stroke-width="3"/><line id="Line-Copy-8" x1="47.5" x2="87.5" y1="144.5" y2="144.5" stroke="#CAD0D8" stroke-linejoin="round" stroke-width="3"/><line id="Line-Copy-9" x1="47.5" x2="87.5" y1="162.5" y2="162.5" stroke="#CAD0D8" stroke-linejoin="round" stroke-width="3"/><line id="Line-Copy-10" x1="47.5" x2="87.5" y1="180.5" y2="180.5" stroke="#CAD0D8" stroke-linejoin="round" stroke-width="3"/><line id="Line-Copy-11" x1="47.5" x2="87.5" y1="198.5" y2="198.5" stroke="#CAD0D8" stroke-linejoin="round" stroke-width="3"/><rect id="Rectangle" width="40" height="218" x="48" y=".5" stroke="#CAD0D8" stroke-linejoin="round" stroke-width="3" rx="2"/><polygon id="Triangle" stroke="#CAD0D8" stroke-linejoin="round" stroke-width="3" points="68 .5 88 18.5 48 18.5"/><polygon id="Triangle-Copy-3" stroke="#CAD0D8" stroke-linejoin="round" stroke-width="3" points="68 18.5 88 36.5 48 36.5"/><polygon id="Triangle-Copy-4" stroke="#CAD0D8" stroke-linejoin="round" stroke-width="3" points="68 36.5 88 54.5 48 54.5"/><polygon id="Triangle-Copy-5" stroke="#CAD0D8" stroke-linejoin="round" stroke-width="3" points="68 54.5 88 72.5 48 72.5"/><polygon id="Triangle-Copy-6" stroke="#CAD0D8" stroke-linejoin="round" stroke-width="3" points="68 72.5 88 90.5 48 90.5"/><polygon id="Triangle-Copy-7" stroke="#CAD0D8" stroke-linejoin="round" stroke-width="3" points="68 90.5 88 108.5 48 108.5"/><polygon id="Triangle-Copy-8" stroke="#CAD0D8" stroke-linejoin="round" stroke-width="3" points="68 108.5 88 126.5 48 126.5"/><polygon id="Triangle-Copy-9" stroke="#CAD0D8" stroke-linejoin="round" stroke-width="3" points="68 126.5 88 144.5 48 144.5"/><polygon id="Triangle-Copy-10" stroke="#CAD0D8" stroke-linejoin="round" stroke-width="3" points="68 144.5 88 162.5 48 162.5"/><polygon id="Triangle-Copy-11" stroke="#CAD0D8" stroke-linejoin="round" stroke-width="3" points="68 162.5 88 180.5 48 180.5"/><polygon id="Triangle-Copy-12" stroke="#CAD0D8" stroke-linejoin="round" stroke-width="3" points="68 180.5 88 198.5 48 198.5"/><polygon id="Triangle-Copy-13" stroke="#CAD0D8" stroke-linejoin="round" stroke-width="3" points="68 198.5 88 216.5 48 216.5"/><line id="Line-18" x1="79.5" x2="79.5" y1="1" y2="214" stroke="#CAD0D8" stroke-linecap="round" stroke-linejoin="round" stroke-width="3"/><rect id="Rectangle-Copy-9" width="65" height="7" x="48" y="29.5" fill="#EBEEF2" stroke="#CAD0D8" stroke-width="3" rx="2"/><circle id="Oval" cx="111" cy="32.5" r="6.5" fill="#EBEEF2" stroke="#CAD0D8" stroke-width="3"/><polygon id="Triangle" stroke="#CAD0D8" stroke-linejoin="round" stroke-width="3" points="21 36.5 29 44.5 13 44.5"/><polygon id="Triangle-Copy-15" stroke="#CAD0D8" stroke-linejoin="round" stroke-width="3" points="56 29.5 64 36.5 48 36.5"/><polygon id="Triangle-Copy-17" stroke="#CAD0D8" stroke-linejoin="round" stroke-width="3" points="72 29.5 80 36.5 64 36.5"/><polygon id="Triangle-Copy-19" stroke="#CAD0D8" stroke-linejoin="round" stroke-width="3" points="88 29.5 96 36.5 80 36.5"/><polyline id="Path" stroke="#CAD0D8" stroke-linejoin="round" stroke-width="3" points="104.017 36.5 96 36.5 104 29.5"/><polygon id="Triangle-Copy-16" stroke="#CAD0D8" stroke-linejoin="round" stroke-width="3" points="28 72.5 36 80.5 20 80.5"/><polyline id="Path" stroke="#CAD0D8" stroke-linejoin="round" stroke-width="3" points="47.718 80.5 35 80.5 43 72.5 47.727 77.227"/><polygon id="Triangle-Copy-18" stroke="#CAD0D8" stroke-linejoin="round" stroke-width="3" points="32 108.5 40 116.5 24 116.5"/><polygon id="Triangle-Copy-20" stroke="#CAD0D8" stroke-linejoin="round" stroke-width="3" points="37 136.5 45 144.5 29 144.5"/><polygon id="Triangle-Copy-22" stroke="#CAD0D8" stroke-linejoin="round" stroke-width="3" points="37 180.5 45 188.5 29 188.5"/><polyline id="Path" stroke="#CAD0D8" stroke-linejoin="round" stroke-width="3" points="48.059 116.5 39 116.5 47 108.5"/><polygon id="Triangle-Copy-14" stroke="#CAD0D8" stroke-linejoin="round" stroke-width="3" points="36 36.5 44 44.5 28 44.5"/><polyline id="Path" stroke="#CAD0D8" stroke-linejoin="round" stroke-width="3" points="48.001 44.5 44 44.5 48.009 40.491"/><g id="hooks" stroke="#CAD0D8" stroke-width="2" transform="translate(0.000000, 37.000000)"><path id="Path" d="M0,0 C0,1.93299662 1.11928813,3.5 2.5,3.5 C3.88071187,3.5 5,1.93299662 5,0"/><path id="Path-Copy-3" d="M7,35.5 C7,37.4329966 8.11928813,39 9.5,39 C10.8807119,39 12,37.4329966 12,35.5"/><path id="Path-Copy-5" d="M16,144.5 C16,146.432997 17.1192881,148 18.5,148 C19.8807119,148 21,146.432997 21,144.5"/><path id="Path-Copy-4" d="M7,71.5 C7,73.4329966 8.34314575,75 10,75 C11.6568542,75 13,73.4329966 13,71.5"/></g></g></g></g></g><g id="foreground-illustration"><mask id="mask-4" fill="#fff"><use xlink:href="#path-3"/></mask><g id="foreground-components" mask="url(#mask-4)"><g transform="translate(-170.000000, 110.000000)"><g id="fence-rope" transform="translate(0.000000, 3.000000)"><path id="Path" stroke="#2F353F" stroke-width="4" d="M243,0 C243,19.882251 292.92025,36 354.5,36 C416.07975,36 466,19.882251 466,0"/><path id="Path-Copy" stroke="#2F353F" stroke-width="4" d="M466,0 C466,19.882251 520.397403,36 587.5,36 C654.602597,36 709,19.882251 709,0"/><path id="Path-Copy-2" stroke="#2F353F" stroke-width="4" d="M1.42108547e-14,0 C1.42108547e-14,19.882251 54.3974029,36 121.5,36 C188.602597,36 243,19.882251 243,0"/></g><g id="fence-posts" stroke-linejoin="round" transform="translate(233.000000, 0.000000)"><rect id="Rectangle" width="20" height="110" x="0" y="0" fill="#DEE2E7" stroke="#2F353F" stroke-width="4" rx="4"/><rect id="Rectangle-Copy" width="20" height="110" x="223" y="0" fill="#DEE2E7" stroke="#2F353F" stroke-width="4" rx="4"/></g><g id="sign" transform="translate(323.000000, 30.000000)"><rect id="Rectangle-Copy-2" width="63" height="42" x="0" y="0" fill="#F18686" stroke="#2F353F" stroke-linejoin="round" stroke-width="4" rx="4"/><g id="Group-7" stroke="#FFF" stroke-width="4" transform="translate(19.000000, 9.000000)"><circle id="Oval" cx="12" cy="12" r="12"/><line id="Line-4" x1="20.132" x2="3.868" y1="3.868" y2="20.132" stroke-linecap="round"/></g></g></g></g></g></g></g></svg>