<svg xmlns="http://www.w3.org/2000/svg" id="e2b435e2-5181-4ee8-9133-d1c8ba1e35bb" data-name="Layer 1" viewBox="0 0 24 24"><defs><style>.a8ac517d-5eda-4ecd-a41f-35d9425a8ec9{fill:#fff}.bb7357fc-1993-4fd0-9798-a6cf818ed67b,.ecec9182-386f-4d8f-8365-3fbc576a4c2f{fill:none;stroke:#3f20ba;stroke-linecap:round;stroke-linejoin:round;stroke-width:.5px}.ecec9182-386f-4d8f-8365-3fbc576a4c2f{fill:#d9cfff}.b0592a60-91c9-4305-8e4a-9f1bf7ca0875{fill:#3f20ba}</style></defs><title>Apollo-Custom-Icons</title><polygon points="12 2.11 3.45 7.05 3.45 16.95 12 21.89 20.55 16.95 20.55 7.05 12 2.11" class="a8ac517d-5eda-4ecd-a41f-35d9425a8ec9"/><polygon points="20.55 7.05 20.55 16.95 12 21.89 12 11.98 20.55 7.05" class="bb7357fc-1993-4fd0-9798-a6cf818ed67b"/><polygon points="20.55 7.05 12 11.98 3.45 7.05 12 2.11 20.55 7.05" class="bb7357fc-1993-4fd0-9798-a6cf818ed67b"/><line x1="12.94" x2="16.04" y1="6.23" y2="4.44" class="bb7357fc-1993-4fd0-9798-a6cf818ed67b"/><line x1="7.49" x2="10.58" y1="9.38" y2="7.59" class="bb7357fc-1993-4fd0-9798-a6cf818ed67b"/><polygon points="6.54 5.26 15.09 10.2 17.45 8.83 8.91 3.9 6.54 5.26" class="ecec9182-386f-4d8f-8365-3fbc576a4c2f"/><polygon points="17.45 8.83 17.45 13.74 15.09 15.11 15.09 10.2 17.45 8.83" class="ecec9182-386f-4d8f-8365-3fbc576a4c2f"/><polygon points="12 21.89 12 11.98 3.45 7.05 3.45 16.95 12 21.89" class="bb7357fc-1993-4fd0-9798-a6cf818ed67b"/><path d="M4.15,17.5,4.4,12l.25,5.46a.25.25,0,0,1-.24.26.24.24,0,0,1-.26-.24Z" class="b0592a60-91c9-4305-8e4a-9f1bf7ca0875"/><path d="M5.09,18l.25-5.45L5.59,18a.26.26,0,0,1-.24.27.26.26,0,0,1-.26-.24Z" class="b0592a60-91c9-4305-8e4a-9f1bf7ca0875"/><path d="M6,18.59l.25-5.45.25,5.45a.26.26,0,0,1-.24.26A.24.24,0,0,1,6,18.61S6,18.6,6,18.59Z" class="b0592a60-91c9-4305-8e4a-9f1bf7ca0875"/><path d="M7,19.13l.25-5.45.25,5.45a.25.25,0,1,1-.5,0Z" class="b0592a60-91c9-4305-8e4a-9f1bf7ca0875"/><path d="M7.92,19.68l.25-5.45.25,5.45a.24.24,0,0,1-.23.26.26.26,0,0,1-.27-.24Z" class="b0592a60-91c9-4305-8e4a-9f1bf7ca0875"/><path d="M8.87,20.23l.25-5.46.25,5.46a.25.25,0,0,1-.5,0Z" class="b0592a60-91c9-4305-8e4a-9f1bf7ca0875"/><path d="M9.81,20.77l.25-5.45.25,5.45a.24.24,0,0,1-.23.26.26.26,0,0,1-.27-.24Z" class="b0592a60-91c9-4305-8e4a-9f1bf7ca0875"/><path d="M10.76,21.32,11,15.86l.25,5.46a.26.26,0,0,1-.24.26.25.25,0,0,1-.26-.24Z" class="b0592a60-91c9-4305-8e4a-9f1bf7ca0875"/></svg>