<svg xmlns="http://www.w3.org/2000/svg" xmlns:xlink="http://www.w3.org/1999/xlink" x="0" y="0" version="1.1" viewBox="0 0 121.5 121.5" xml:space="preserve" style="enable-background:new 0 0 121.5 121.5"><style type="text/css">.st3{fill:#fff}.st4{fill:none;stroke:#3f20ba;stroke-width:1.2;stroke-miterlimit:10}.st5{stroke-linecap:round;stroke-linejoin:round}.st5,.st6{fill:#d9cfff;stroke:#3f20ba;stroke-width:1.2;stroke-miterlimit:10}.st7{fill:#3f20ba}</style><g id="Layer_1"><g><path d="M7.32,50.68c-8.75,5.05-3.59,11.74,5.14,16.77c15.53,8.97,11.82,14.04,23.55,20.81 c13.39,7.73,28.46,9.02,39.43,2.68S71.2,76.87,64.48,72.99c-7.83-4.52-13.58-4.27-21.68-8.95S29.23,52.86,23.42,49.5 S12.33,47.78,7.32,50.68z" class="st3"/><path d="M46.73,23.93c-8.75,5.05-3.59,11.74,5.14,16.77c15.53,8.97,11.82,14.04,23.55,20.81 c13.39,7.73,28.46,9.02,39.43,2.68s-4.24-14.08-10.96-17.96c-7.83-4.52-13.58-4.27-21.68-8.95S68.64,26.1,62.84,22.75 S51.74,21.03,46.73,23.93z" class="st3"/><g><g><path d="M7.32,50.68c-8.75,5.05-3.59,11.74,5.14,16.77c15.53,8.97,11.82,14.04,23.55,20.81 c13.39,7.73,28.46,9.02,39.43,2.68S71.2,76.87,64.48,72.99c-7.83-4.52-13.58-4.27-21.68-8.95S29.23,52.86,23.42,49.5 S12.33,47.78,7.32,50.68z" class="st4"/><path d="M32.9,59.43c0,0,12.8-1.97,19.3,1.78c8.59,4.96,7.3,12.25,7.3,12.25c-4.79-2.77-10.51-4.34-18.98-2.07 c-12.12,3.25-18.1-4.65-18.1-4.65c0,6.3,6.21,9.74,16.02,9.74s14.39-3.19,22.4,1.43c3.31,1.91,3.97,5.19,4.09,6.75 c0.04,0.5,0.46,0.88,0.96,0.88h0c0.55,0,0.99-0.46,0.96-1c-0.3-5.73-3.16-6.81-3.16-11.58c0-5.03-1.18-9.71-7.84-13.55 C48.15,54.95,32.9,59.43,32.9,59.43z" class="st5"/><path d="M79.3,86.02c-0.01,1.68-1.12,3.35-3.86,4.93c-10.97,6.33-26.04,5.05-39.43-2.68 c-11.73-6.77-8.02-11.84-23.55-20.81C6.92,64.26,2.83,60.4,2.8,56.72l0,5.79c0.14,3.63,4.21,7.43,9.66,10.57 c15.53,8.97,11.82,14.04,23.55,20.81c13.39,7.73,28.46,9.02,39.43,2.68c2.66-1.54,3.78-3.15,3.85-4.78L79.3,86.02z" class="st6"/></g><g><polygon points="75.82 96.05 76.32 92.19 76.82 96.05" class="st7"/></g><g><g><polygon points="3.64 59.7 15.19 53.46 4.02 60.34" class="st7"/></g><g><polygon points="4.61 61.37 12.33 57.34 4.98 62.02" class="st7"/></g><g><polygon points="2.71 55.77 12.59 50.5 3.09 56.42" class="st7"/></g><g><polygon points="2.68 58.02 10.06 54.19 3.05 58.67" class="st7"/></g><g><polygon points="6.24 62.65 17.79 56.42 6.62 63.3" class="st7"/></g><g><polygon points="7.54 64.13 15.27 60.11 7.92 64.78" class="st7"/></g><g><polygon points="9.18 65.42 20.72 59.19 9.55 66.07" class="st7"/></g><g><polygon points="11.15 66.51 18.53 62.68 11.52 67.16" class="st7"/></g><g><polygon points="31.68 85.09 41.24 80 32.05 85.74" class="st7"/></g><g><polygon points="33.37 86.34 41.09 82.32 33.74 86.99" class="st7"/></g><g><polygon points="29.94 83.86 36.21 80.68 30.32 84.51" class="st7"/></g><g><polygon points="35.18 87.53 46.07 81.68 35.56 88.18" class="st7"/></g><g><polygon points="37.15 88.62 45.42 84.28 37.52 89.27" class="st7"/></g><g><polygon points="39.15 89.7 50.75 83.43 39.52 90.35" class="st7"/></g><g><polygon points="41.36 90.65 49.6 86.33 41.73 91.3" class="st7"/></g><g><polygon points="43.5 91.65 55.44 85.19 43.87 92.3" class="st7"/></g><g><polygon points="46.03 92.42 54.29 88.08 46.4 93.07" class="st7"/></g><g><polygon points="48.49 93.23 60.09 86.96 48.86 93.88" class="st7"/></g><g><polygon points="51.31 93.83 59.02 89.81 51.69 94.48" class="st7"/></g><g><polygon points="17.07 76.28 17.44 72.3 17.82 76.28" class="st7"/></g><g><polygon points="15.72 75.31 16.09 71.32 16.47 75.31" class="st7"/></g><g><polygon points="18.42 77.29 18.79 73.16 19.17 77.29" class="st7"/></g><g><polygon points="19.77 78.39 20.15 74.53 20.52 78.39" class="st7"/></g><g><polygon points="73.24 97.5 73.61 93.52 73.99 97.5" class="st7"/></g><g><polygon points="71.89 98.13 72.26 94.14 72.64 98.13" class="st7"/></g><g><polygon points="74.59 96.81 74.97 92.68 75.34 96.81" class="st7"/></g><g><polygon points="69.18 99.14 69.56 95.16 69.93 99.14" class="st7"/></g><g><polygon points="67.83 99.53 68.21 95.54 68.58 99.53" class="st7"/></g><g><polygon points="66.48 99.86 66.85 95.87 67.23 99.86" class="st7"/></g><g><polygon points="70.53 98.68 70.91 94.55 71.28 98.68" class="st7"/></g></g></g><g><g><path d="M46.73,23.93c-8.75,5.05-3.59,11.74,5.14,16.77c15.53,8.97,11.82,14.04,23.55,20.81 c13.39,7.73,28.46,9.02,39.43,2.68s-4.24-14.08-10.96-17.96c-7.83-4.52-13.58-4.27-21.68-8.95S68.64,26.1,62.84,22.75 S51.74,21.03,46.73,23.93z" class="st4"/><path d="M72.31,32.67c0,0,12.8-1.97,19.3,1.78c8.59,4.96,7.3,12.25,7.3,12.25c-4.79-2.77-10.51-4.34-18.98-2.07 c-12.12,3.25-18.1-4.65-18.1-4.65c0,6.3,6.21,9.74,16.02,9.74s14.39-3.19,22.4,1.43c3.31,1.91,3.97,5.19,4.09,6.75 c0.04,0.5,0.46,0.88,0.96,0.88l0,0c0.55,0,0.99-0.46,0.96-1c-0.3-5.73-3.16-6.81-3.16-11.58c0-5.03-1.18-9.71-7.84-13.55 C87.56,28.2,72.31,32.67,72.31,32.67z" class="st5"/><path d="M118.71,59.26c-0.01,1.68-1.12,3.35-3.86,4.93c-10.97,6.33-26.04,5.05-39.43-2.68 C63.69,54.74,67.4,49.67,51.87,40.7c-5.53-3.19-9.63-7.05-9.66-10.73l0,5.79c0.14,3.63,4.21,7.43,9.66,10.57 C67.4,55.3,63.69,60.37,75.42,67.14c13.39,7.73,28.46,9.02,39.43,2.68c2.66-1.54,3.78-3.15,3.85-4.78L118.71,59.26z" class="st6"/></g><g><polygon points="43.05 32.94 54.6 26.71 43.43 33.59" class="st7"/></g><g><polygon points="44.02 34.61 51.74 30.59 44.39 35.26" class="st7"/></g><g><polygon points="42.12 29.02 52 23.75 42.5 29.67" class="st7"/></g><g><polygon points="42.09 31.27 49.48 27.44 42.46 31.92" class="st7"/></g><g><polygon points="45.65 35.9 57.2 29.67 46.03 36.55" class="st7"/></g><g><polygon points="46.95 37.38 54.68 33.35 47.33 38.03" class="st7"/></g><g><polygon points="48.59 38.67 60.13 32.43 48.96 39.32" class="st7"/></g><g><polygon points="50.56 39.76 57.95 35.93 50.93 40.41" class="st7"/></g><g><polygon points="71.09 58.34 80.65 53.25 71.46 58.98" class="st7"/></g><g><polygon points="72.78 59.59 80.5 55.56 73.15 60.24" class="st7"/></g><g><polygon points="69.35 57.11 75.62 53.92 69.73 57.76" class="st7"/></g><g><polygon points="74.59 60.77 85.48 54.92 74.97 61.42" class="st7"/></g><g><polygon points="76.56 61.87 84.83 57.53 76.93 62.52" class="st7"/></g><g><polygon points="78.56 62.94 90.16 56.68 78.93 63.59" class="st7"/></g><g><polygon points="80.77 63.9 89.01 59.57 81.14 64.55" class="st7"/></g><g><polygon points="82.91 64.89 94.85 58.43 83.28 65.54" class="st7"/></g><g><polygon points="85.44 65.66 93.7 61.32 85.81 66.31" class="st7"/></g><g><polygon points="87.9 66.47 99.5 60.21 88.27 67.12" class="st7"/></g><g><polygon points="90.72 67.07 98.43 63.06 91.1 67.72" class="st7"/></g><g><polygon points="56.48 49.52 56.85 45.54 57.23 49.52" class="st7"/></g><g><polygon points="55.13 48.56 55.5 45.57 55.88 48.56" class="st7"/></g><g><polygon points="57.83 50.53 58.21 46.41 58.58 50.53" class="st7"/></g><g><polygon points="59.18 51.64 59.56 47.77 59.93 51.64" class="st7"/></g><g><polygon points="112.65 70.75 113.02 66.77 113.4 70.75" class="st7"/></g><g><polygon points="111.3 71.37 111.67 67.38 112.05 71.37" class="st7"/></g><g><polygon points="114 70.06 114.38 65.93 114.75 70.06" class="st7"/></g><g><polygon points="115.35 69.3 115.73 65.44 116.1 69.3" class="st7"/></g><g><polygon points="108.59 72.38 108.97 68.4 109.34 72.38" class="st7"/></g><g><polygon points="107.24 72.78 107.62 68.79 107.99 72.78" class="st7"/></g><g><polygon points="105.89 73.1 106.26 69.11 106.64 73.1" class="st7"/></g><g><polygon points="109.95 71.92 110.32 67.8 110.7 71.92" class="st7"/></g></g></g></g></svg>