<svg xmlns="http://www.w3.org/2000/svg" id="bd8e41e0-d1ef-4799-9ef5-c3559267c7a6" data-name="Layer 1" viewBox="0 0 24 24"><defs><style>.b3297803-a6ef-4113-b366-5588b972eded{fill:#fff;stroke-linecap:round}.b3297803-a6ef-4113-b366-5588b972eded,.ba7c87bb-97b6-404a-9a83-379530834602{stroke:#3f20ba;stroke-linejoin:round;stroke-width:.5px}.b90bd33f-2fd1-432c-be41-94039068474d,.ba7c87bb-97b6-404a-9a83-379530834602{fill:#d9cfff}.bc26b56a-923d-4cf3-98bd-693ab24af86b{fill:#3f20ba}</style></defs><title>Apollo-Custom-Icons</title><path d="M22.59,14.92,10.86,8.15A1.87,1.87,0,0,0,11,7.42c0-1.63-2.29-3-5.12-3A8.36,8.36,0,0,0,4,4.68L7,6.39A.82.82,0,0,1,7,7.8L6.58,8A2.42,2.42,0,0,1,4.14,8l-3-1.71A2,2,0,0,0,.8,7.42c0,1.63,2.29,3,5.12,3a8.85,8.85,0,0,0,1.29-.11L19,17a3.64,3.64,0,0,0,3.64,0h0A1.22,1.22,0,0,0,22.59,14.92Z" class="b3297803-a6ef-4113-b366-5588b972eded"/><path d="M22.6,17h0A3.64,3.64,0,0,1,19,17L7.21,10.27a8.85,8.85,0,0,1-1.29.11C3.09,10.38.8,9.05.8,7.42v2c0,1.63,2.29,3,5.12,3a7.65,7.65,0,0,0,1.29-.11L19,19.05a3.64,3.64,0,0,0,3.64,0h0a1.2,1.2,0,0,0,.6-1h0v-2h0A1.19,1.19,0,0,1,22.6,17Z" class="ba7c87bb-97b6-404a-9a83-379530834602"/><path d="M6.58,8,7,7.8A.82.82,0,0,0,7,6.39L4,4.68v2l2.42,1.4Z" class="ba7c87bb-97b6-404a-9a83-379530834602"/><line x1="7.21" x2="9.57" y1="10.27" y2="8.91" class="b90bd33f-2fd1-432c-be41-94039068474d"/><polygon points="7.09 10.05 9.57 8.91 7.34 10.48 7.09 10.05" class="bc26b56a-923d-4cf3-98bd-693ab24af86b"/><line x1="8.08" x2="10.44" y1="10.77" y2="9.41" class="b90bd33f-2fd1-432c-be41-94039068474d"/><polygon points="7.96 10.55 10.44 9.41 8.21 10.98 7.96 10.55" class="bc26b56a-923d-4cf3-98bd-693ab24af86b"/><line x1="8.95" x2="11.3" y1="11.27" y2="9.91" class="b90bd33f-2fd1-432c-be41-94039068474d"/><polygon points="8.82 11.05 11.3 9.91 9.07 11.48 8.82 11.05" class="bc26b56a-923d-4cf3-98bd-693ab24af86b"/><line x1="9.81" x2="12.17" y1="11.77" y2="10.41" class="b90bd33f-2fd1-432c-be41-94039068474d"/><polygon points="9.69 11.55 12.17 10.41 9.94 11.98 9.69 11.55" class="bc26b56a-923d-4cf3-98bd-693ab24af86b"/><line x1="10.68" x2="13.03" y1="12.27" y2="10.91" class="b90bd33f-2fd1-432c-be41-94039068474d"/><polygon points="10.55 12.05 13.03 10.91 10.8 12.48 10.55 12.05" class="bc26b56a-923d-4cf3-98bd-693ab24af86b"/><line x1="11.54" x2="13.9" y1="12.77" y2="11.41" class="b90bd33f-2fd1-432c-be41-94039068474d"/><polygon points="11.42 12.55 13.9 11.41 11.67 12.98 11.42 12.55" class="bc26b56a-923d-4cf3-98bd-693ab24af86b"/><line x1="12.41" x2="14.77" y1="13.27" y2="11.91" class="b90bd33f-2fd1-432c-be41-94039068474d"/><polygon points="12.29 13.05 14.77 11.91 12.54 13.48 12.29 13.05" class="bc26b56a-923d-4cf3-98bd-693ab24af86b"/><line x1="13.28" x2="15.63" y1="13.77" y2="12.41" class="b90bd33f-2fd1-432c-be41-94039068474d"/><polygon points="13.15 13.55 15.63 12.41 13.4 13.98 13.15 13.55" class="bc26b56a-923d-4cf3-98bd-693ab24af86b"/><line x1="14.14" x2="16.5" y1="14.27" y2="12.91" class="b90bd33f-2fd1-432c-be41-94039068474d"/><polygon points="14.02 14.05 16.5 12.91 14.27 14.48 14.02 14.05" class="bc26b56a-923d-4cf3-98bd-693ab24af86b"/><line x1="15.01" x2="17.36" y1="14.77" y2="13.41" class="b90bd33f-2fd1-432c-be41-94039068474d"/><polygon points="14.88 14.55 17.36 13.41 15.13 14.98 14.88 14.55" class="bc26b56a-923d-4cf3-98bd-693ab24af86b"/><line x1="15.87" x2="18.23" y1="15.27" y2="13.91" class="b90bd33f-2fd1-432c-be41-94039068474d"/><polygon points="15.75 15.05 18.23 13.91 16 15.48 15.75 15.05" class="bc26b56a-923d-4cf3-98bd-693ab24af86b"/><line x1="16.74" x2="19.1" y1="15.77" y2="14.41" class="b90bd33f-2fd1-432c-be41-94039068474d"/><polygon points="16.61 15.55 19.1 14.41 16.86 15.98 16.61 15.55" class="bc26b56a-923d-4cf3-98bd-693ab24af86b"/><line x1="17.61" x2="19.96" y1="16.27" y2="14.91" class="b90bd33f-2fd1-432c-be41-94039068474d"/><polygon points="17.48 16.05 19.96 14.91 17.73 16.48 17.48 16.05" class="bc26b56a-923d-4cf3-98bd-693ab24af86b"/><line x1="18.47" x2="20.83" y1="16.77" y2="15.41" class="b90bd33f-2fd1-432c-be41-94039068474d"/><polygon points="18.35 16.55 20.83 15.41 18.6 16.98 18.35 16.55" class="bc26b56a-923d-4cf3-98bd-693ab24af86b"/><line x1="19.37" x2="21.69" y1="17.25" y2="15.91" class="b90bd33f-2fd1-432c-be41-94039068474d"/><polygon points="19.24 17.03 21.69 15.91 19.49 17.47 19.24 17.03" class="bc26b56a-923d-4cf3-98bd-693ab24af86b"/></svg>