<svg xmlns="http://www.w3.org/2000/svg" xmlns:xlink="http://www.w3.org/1999/xlink" width="24" height="27" version="1.1" viewBox="0 0 24 27"><title>Group 4</title><desc>Created with Sketch.</desc><g id="Icons" fill="none" fill-rule="evenodd" stroke="none" stroke-linecap="round" stroke-linejoin="round" stroke-width="1"><g id="Icons-Controls" stroke="#000" stroke-width="1.5" transform="translate(-297.000000, -1049.000000)"><g id="Group-4" transform="translate(298.000000, 1050.000000)"><path id="Path" d="M15.5833333,5 C16.3653333,5 17,5.7168 17,6.6 L17,23.4 C17,24.2832 16.3653333,25 15.5833333,25 L1.41666667,25 C0.634666667,25 0,24.2832 0,23.4 L0,6.6 C0,5.7168 0.634666667,5 1.41666667,5 L15.5833333,5 Z"/><path id="Path" d="M5,4.26315789 C5,3.72982456 5,2.66666667 5,1.6 C5,0.7168 5.63466667,0 6.41666667,0 L20.5833333,0 C21.3653333,0 22,0.7168 22,1.6 L22,18.4 C22,19.2832 21.3653333,20 20.5833333,20 C19.3240741,20 18.3171296,20 17.6875,20"/><g id="Group-5" transform="translate(4.000000, 10.000000)"><path id="Path" d="M4.5,0 L4.5,9"/><path id="Path" d="M0,4.5 L9,4.5"/></g></g></g></g></svg>