<svg xmlns="http://www.w3.org/2000/svg" xmlns:svgjs="http://svgjs.com/svgjs" xmlns:xlink="http://www.w3.org/1999/xlink" width="24" height="24" version="1.1" viewBox="0 0 24 24"><title>Exported from Streamline App (https://app.streamlineicons.com)</title><g><path fill="none" stroke="#000" stroke-linecap="round" stroke-linejoin="round" stroke-width="1.5" d="M 19.5,15.75l3.311-3.311c0.586-0.586,0.586-1.535,0-2.121L20.7,8.212c-0.804,1.909-3.003,2.804-4.912,1.999 s-2.804-3.003-1.999-4.912c0.38-0.902,1.098-1.619,1.999-1.999l-2.106-2.111c-0.586-0.586-1.535-0.586-2.121,0L8.25,4.5 c0-2.071-1.679-3.75-3.75-3.75S0.75,2.429,0.75,4.5S2.429,8.25,4.5,8.25l-3.311,3.311c-0.586,0.586-0.586,1.535,0,2.121L3.3,15.788 c0.804-1.909,3.003-2.804,4.912-1.999s2.804,3.003,1.999,4.912c-0.38,0.902-1.098,1.619-1.999,1.999l2.106,2.107 c0.586,0.586,1.535,0.586,2.121,0L15.75,19.5c0,2.071,1.679,3.75,3.75,3.75s3.75-1.679,3.75-3.75S21.571,15.75,19.5,15.75z" transform="matrix(1,0,0,1,0,0)"/></g></svg>