<svg xmlns="http://www.w3.org/2000/svg" xmlns:xlink="http://www.w3.org/1999/xlink" width="24" height="24" version="1.1" viewBox="0 0 24 24"><title>Group 2</title><desc>Created with Sketch.</desc><g id="Icons" fill="none" fill-rule="evenodd" stroke="none" stroke-width="1"><g id="Icons-Navigation" stroke="#000" stroke-width="1.5" transform="translate(-299.000000, -744.000000)"><g id="Group-2" transform="translate(300.000000, 745.000000)"><path id="Path" stroke-linecap="round" stroke-linejoin="round" d="M10.725,5.775 C13.45872,5.775 15.675,7.99128 15.675,10.725 C15.675,13.45872 13.45872,15.675 10.725,15.675 C7.99128,15.675 5.775,13.45872 5.775,10.725 C5.775,7.99128 7.99128,5.775 10.725,5.775 Z"/><path id="Path" stroke-linecap="round" stroke-linejoin="round" d="M10.725,4.4408921e-14 C16.6485,4.4408921e-14 21.45,4.8015 21.45,10.725 C21.45,16.6485 16.6485,21.45 10.725,21.45 C4.8015,21.45 4.4408921e-14,16.6485 4.4408921e-14,10.725 C4.4408921e-14,4.8015 4.8015,4.4408921e-14 10.725,4.4408921e-14 Z"/><path id="Path-3" d="M16.3965856,8.03258103 L16.3965856,2.07424769" transform="translate(16.396586, 5.053414) rotate(-315.000000) translate(-16.396586, -5.053414)"/><path id="Path-4" d="M5.05341436,13.417419 L5.05341436,19.3757523" transform="translate(5.053414, 16.396586) rotate(-315.000000) translate(-5.053414, -16.396586)"/><path id="Path-5" d="M13.417419,16.3965856 L19.3757523,16.3965856" transform="translate(16.396586, 16.396586) rotate(-315.000000) translate(-16.396586, -16.396586)"/><path id="Path-6" d="M8.03258103,5.05341436 L2.07424769,5.05341436" transform="translate(5.053414, 5.053414) rotate(-315.000000) translate(-5.053414, -5.053414)"/></g></g></g></svg>