<svg xmlns="http://www.w3.org/2000/svg" xmlns:xlink="http://www.w3.org/1999/xlink" width="32" height="31" version="1.1" viewBox="0 0 32 31"><title>streamline-icon-monitor@32x32</title><desc>Created with Sketch.</desc><g id="Page-1" fill="none" fill-rule="evenodd" stroke="none" stroke-linecap="round" stroke-linejoin="round" stroke-width="1"><g id="platform-nav-dropdown" stroke="#000" stroke-width="1.5" transform="translate(-898.000000, -150.000000)"><g id="Group-4" transform="translate(248.000000, 57.000000)"><g id="streamline-icon-monitor@32x32" transform="translate(651.000000, 94.000000)"><polygon id="Path" points="20 29.032 10 29.032 11 23.226 19 23.226"/><line id="Path" x1="7" x2="23" y1="29.032" y2="29.032"/><line id="Path" x1="0" x2="30" y1="19.355" y2="19.355"/><path id="Path" d="M2,0 L28,0 C29.1045695,-2.16501571e-15 30,0.8954305 30,2 L30,21.2258065 C30,22.330376 29.1045695,23.2258065 28,23.2258065 L2,23.2258065 C0.8954305,23.2258065 1.3527075e-16,22.330376 0,21.2258065 L0,2 C-1.3527075e-16,0.8954305 0.8954305,2.02906125e-16 2,0 Z"/></g></g></g></g></svg>